#!OML:ASF Y:\EmotionMaleHayes\Project 1\Capture day 1\Session 1\Male1.ASF
:FULLY-SPECIFIED
:DEGREES
124
root -30.1139 17.0605 0.83894 47.0895 86.3118 46.9785
lowerback 4.51545 1.39519 -5.60353
upperback -0.542759 1.54372 -0.424576
thorax -3.23393 0.868115 2.58979
lowerneck -20.4653 3.44321 4.58043
upperneck 26.1047 4.2234 -1.87725
head 12.1486 2.21079 -0.761245
rclavicle 9.65348e-015 -1.39149e-014
rhumerus -34.913 7.99527 -91.7847
rradius 30.1704
rwrist 5.35806
rhand -10.2171 -30.9135
rfingers 7.12502
rthumb 15.7746 -60.2907
lclavicle 9.65348e-015 -1.39149e-014
lhumerus -32.0596 -8.02142 92.3691
lradius 21.7385
lwrist -20.7686
lhand -12.8594 -27.459
lfingers 7.12502
lthumb 13.2287 2.10123
rfemur 8.57909 -2.70183 10.3582
rtibia 2.47395
rfoot -14.7124 -3.50998
rtoes 7.11804
lfemur 11.4125 -2.4524 -17.8955
ltibia -2.91014
lfoot -10.2469 11.5151
ltoes -19.2732
125
root -30.1137 17.0608 0.841219 47.497 86.2429 47.3993
lowerback 4.5169 1.40437 -5.70927
upperback -0.552791 1.54948 -0.440224
thorax -3.24832 0.873431 2.63212
lowerneck -20.4372 3.46392 4.63417
upperneck 26.108 4.25026 -1.9206
head 12.1478 2.22297 -0.782398
rclavicle -1.04843e-014 1.96797e-014
rhumerus -34.8911 7.88621 -91.7453
rradius 30.0088
rwrist 5.55157
rhand -10.3201 -30.5664
rfingers 7.12502
rthumb 15.6754 -59.9515
lclavicle -1.04843e-014 1.96797e-014
lhumerus -32.0307 -7.80478 92.2454
lradius 21.9145
lwrist -19.9752
lhand -11.5405 -27.4115
lfingers 7.12502
lthumb 14.4998 2.06182
rfemur 8.58431 -2.64582 10.2943
rtibia 2.48569
rfoot -14.7607 -3.46774
rtoes 7.44684
lfemur 11.4019 -2.34819 -17.939
ltibia -2.86891
lfoot -10.2441 11.4456
ltoes -18.893
126
root -30.1128 17.062 0.844184 48.0705 86.1322 47.99
lowerback 4.50687 1.42871 -5.86923
upperback -0.549313 1.57371 -0.463334
thorax -3.24531 0.888234 2.69604
lowerneck -20.38 3.46213 4.64084
upperneck 26.0292 4.23779 -1.89923
head 12.1047 2.22055 -0.778798
rclavicle -3.16347e-015 9.93923e-015
rhumerus -34.9375 8.01217 -91.8064
rradius 30.0917
rwrist 5.42965
rhand -10.2993 -30.8013
rfingers 7.12502
rthumb 15.6955 -60.1847
lclavicle -3.16347e-015 9.93923e-015
lhumerus -32.1511 -8.09643 92.3838
lradius 21.7955
lwrist -20.6451
lhand -12.4389 -27.5401
lfingers 7.12502
lthumb 13.6341 1.99334
rfemur 8.61039 -2.51768 10.2155
rtibia 2.46179
rfoot -14.7971 -3.5287
rtoes 7.11185
lfemur 11.3535 -1.92346 -17.9199
ltibia -2.74997
lfoot -10.2323 11.0665
ltoes -18.9887
127
root -30.1134 17.061 0.84287 47.381 86.1956 47.2989
lowerback 4.54658 1.42383 -5.75039
upperback -0.579123 1.56976 -0.458863
thorax -3.2949 0.885876 2.63315
lowerneck -20.2389 3.46151 4.81289
upperneck 25.8601 4.24193 -2.11424
head 12.0205 2.21054 -0.890385
rclavicle -1.78145e-014 -5.46658e-015
rhumerus -34.9941 7.99354 -91.8245
rradius 30.0986
rwrist 5.48857
rhand -10.3005 -30.8516
rfingers 7.12502
rthumb 15.6942 -60.2352
lclavicle -1.78145e-014 -5.46658e-015
lhumerus -32.0485 -7.78571 92.198
lradius 21.9668
lwrist -19.5019
lhand -9.73471 -27.2171
lfingers 7.12502
lthumb 16.2391 2.12278
rfemur 8.61925 -2.50491 10.3286
rtibia 2.44867
rfoot -14.8333 -3.62
rtoes 5.99698
lfemur 11.3138 -1.54796 -17.7017
ltibia -2.67898
lfoot -10.1476 10.7
ltoes -19.5739
128
root -30.1142 17.0585 0.841711 46.1121 86.3234 46.0647
lowerback 4.59317 1.39508 -5.55773
upperback -0.572585 1.53968 -0.427729
thorax -3.30693 0.867563 2.55905
lowerneck -20.1163 3.48566 4.95916
upperneck 25.6811 4.28227 -2.3098
head 11.9369 2.21616 -0.983821
rclavicle -1.05014e-014 -1.2424e-014
rhumerus -34.9673 7.92003 -91.7964
rradius 30.0234
rwrist 5.58665
rhand -10.2543 -30.514
rfingers 7.12502
rthumb 15.7387 -59.8941
lclavicle -1.05014e-014 -1.2424e-014
lhumerus -32.034 -7.76357 92.1734
lradius 21.9204
lwrist -19.5025
lhand -9.81151 -27.3234
lfingers 7.12502
lthumb 16.1652 2.02248
rfemur 8.651 -2.60259 10.4846
rtibia 2.47371
rfoot -14.8045 -3.63946
rtoes 5.94585
lfemur 11.3451 -1.48836 -17.4953
ltibia -2.67608
lfoot -10.1248 10.6139
ltoes -19.6354
